<svg xmlns="http://www.w3.org/2000/svg" width="15" height="15">
    <path fill="#556B7F" fill-rule="evenodd" d="M7.5 14.999a7.5 7.5 0 1 1 0-15 7.5 7.5 0 0 1 0 15zM5.826 2.543L5.44 4.03l-.403-1.487h-.596c.12.351.244.704.364 1.055.181.528.295.926.346 1.197v1.533h.567V4.795l.681-2.252h-.573zm2.088 1.884c0-.301-.052-.522-.159-.665a.698.698 0 0 0-.596-.289.697.697 0 0 0-.595.289c-.109.143-.16.364-.16.665v.988c0 .299.051.522.16.662.141.193.34.289.595.289a.695.695 0 0 0 .596-.289c.107-.14.159-.363.159-.662v-.988zm1.889-.919h-.511v2.155c-.113.16-.22.239-.322.239-.069 0-.109-.04-.12-.12-.007-.016-.007-.079-.007-.198V3.508h-.509v2.23c0 .198.017.333.045.419.052.143.165.209.33.209.186 0 .38-.113.583-.346v.308h.511v-2.82zm1.736 4.054a1.058 1.058 0 0 0-.905-.823c-1.037-.116-2.087-.116-3.133-.116-1.045 0-2.096 0-3.133.116a1.057 1.057 0 0 0-.904.823c-.146.633-.148 1.325-.148 1.977 0 .653 0 1.345.146 1.978.102.445.466.774.904.823 1.037.115 2.088.116 3.134.115 1.045.001 2.095 0 3.133-.115.438-.049.802-.378.904-.823.146-.633.147-1.325.147-1.978 0-.652.001-1.344-.145-1.977zm-.608 3.445c-.14.202-.347.303-.611.303-.265 0-.466-.096-.612-.286-.108-.14-.163-.36-.163-.656v-.979c0-.298.049-.516.157-.657a.717.717 0 0 1 .605-.286c.254 0 .455.095.597.286.106.141.156.359.156.657v.579h-1.011v.495c0 .258.085.387.258.387.125 0 .197-.068.226-.203.005-.028.011-.14.011-.343h.516v.074c0 .163-.006.275-.011.326a.71.71 0 0 1-.118.303zm-.377-1.46v-.258c0-.258-.084-.388-.251-.388-.169 0-.254.13-.254.388v.258h.505zM8.697 11.31c-.18 0-.354-.101-.523-.309v.27h-.506V7.525h.506v1.224c.163-.201.336-.303.523-.303.201 0 .336.106.404.315.033.112.051.297.051.561v1.112c0 .257-.018.444-.051.562-.068.207-.203.314-.404.314zm-.051-2.028c0-.251-.074-.381-.22-.381-.083 0-.168.04-.252.123v1.701c.084.085.169.124.252.124.146 0 .22-.124.22-.376V9.282zm-1.921 1.684c-.201.231-.392.344-.578.344-.163 0-.275-.067-.326-.208a1.411 1.411 0 0 1-.045-.416V8.48h.506v2.055c0 .118 0 .18.005.196.012.079.051.118.118.118.102 0 .208-.077.32-.236V8.48h.506v2.791h-.506v-.305zm-1.628.305h-.562V8.053H3.94v-.528h1.763v.528h-.606v3.218zm2.062-5.369c-.165 0-.244-.13-.244-.391V4.325c0-.262.079-.392.244-.392.165 0 .244.13.244.392v1.186c0 .26-.079.391-.244.391z"/>
</svg>
