<svg xmlns="http://www.w3.org/2000/svg" width="15" height="15">
    <path fill="#556B7F" fill-rule="evenodd" d="M7.5 14.999a7.5 7.5 0 1 1 0-15 7.5 7.5 0 0 1 0 15zM7.511 2.28a2.641 2.641 0 1 0-.032 5.283c1.458.005 2.65-1.164 2.657-2.607.008-1.477-1.164-2.672-2.625-2.676zm3 5.554a.599.599 0 0 0-.688-.274 1.05 1.05 0 0 0-.383.197c-1.169.787-2.768.764-3.932-.035a1.203 1.203 0 0 0-.179-.106c-.324-.152-.634-.082-.819.183-.216.31-.189.611.085.873.07.069.15.127.228.188.625.489 1.354.688 2.163.772-.057.061-.094.104-.133.143-.593.595-1.186 1.191-1.781 1.784-.123.122-.211.26-.22.439a.708.708 0 0 0 .41.654c.243.118.492.08.701-.126.467-.46.93-.923 1.387-1.392.114-.118.176-.144.305-.008.445.465.907.913 1.36 1.369a.65.65 0 0 0 .423.216c.27.018.545-.154.668-.416.112-.24.07-.496-.135-.703-.599-.606-1.202-1.206-1.804-1.81-.041-.042-.073-.078-.139-.151.442-.053.89-.132 1.297-.291a3.155 3.155 0 0 0 1.144-.739c.211-.216.213-.488.042-.767zM7.507 6.215a1.287 1.287 0 0 1-1.301-1.28A1.289 1.289 0 0 1 7.5 3.63a1.286 1.286 0 0 1 1.291 1.29 1.283 1.283 0 0 1-1.284 1.295z"/>
</svg>
