<svg xmlns="http://www.w3.org/2000/svg" width="15" height="15">
    <path fill="#556B7F" fill-rule="evenodd" d="M7.5 0a7.5 7.5 0 1 0 0 14.999A7.5 7.5 0 1 0 7.5 0zm4.535 5.499c.003.089.005.178.005.267 0 3.203-2.438 6.517-6.517 6.517a6.487 6.487 0 0 1-3.511-1.03c-.022-.014-.031-.041-.022-.065a.055.055 0 0 1 .058-.036c.177.02.356.031.535.031.971 0 1.889-.3 2.666-.869a2.328 2.328 0 0 1-2.02-1.608.06.06 0 0 1 .012-.054.056.056 0 0 1 .052-.017c.258.048.52.052.773.011a2.335 2.335 0 0 1-1.635-2.223v-.029a.055.055 0 0 1 .028-.047.055.055 0 0 1 .054-.001c.251.139.528.229.812.263a2.324 2.324 0 0 1-.56-2.99.052.052 0 0 1 .043-.027.056.056 0 0 1 .048.02A6.413 6.413 0 0 0 7.424 5.96a2.329 2.329 0 0 1 3.958-2.072 4.514 4.514 0 0 0 1.395-.538.056.056 0 0 1 .063.004.055.055 0 0 1 .018.06 2.33 2.33 0 0 1-.818 1.15c.363-.064.714-.17 1.049-.319a.056.056 0 0 1 .065.016.054.054 0 0 1 .003.066 4.616 4.616 0 0 1-1.122 1.172z"/>
</svg>
