<svg xmlns="http://www.w3.org/2000/svg" width="15" height="15">
    <path fill="#556B7F" fill-rule="evenodd" d="M7.5 0a7.5 7.5 0 1 0 0 14.999A7.5 7.5 0 0 0 7.5 0zm3.804 8.31c.35.342.719.663 1.033 1.04.139.166.27.339.37.533.142.276.014.579-.233.595h-1.537c-.397.033-.713-.127-.979-.399-.212-.215-.409-.446-.614-.67a1.44 1.44 0 0 0-.277-.246c-.209-.136-.391-.095-.511.124-.122.223-.151.469-.162.717-.017.363-.126.457-.489.474-.777.036-1.514-.081-2.199-.473-.604-.345-1.072-.833-1.48-1.385-.793-1.076-1.401-2.257-1.947-3.472-.123-.273-.033-.42.269-.425.501-.01 1.003-.009 1.504 0 .204.002.339.119.418.311.27.668.603 1.302 1.019 1.891.111.155.224.312.385.423.179.121.314.081.398-.118.054-.125.077-.26.089-.396.04-.463.044-.927-.025-1.389-.043-.288-.205-.476-.493-.53-.147-.028-.125-.082-.054-.166.124-.145.24-.234.472-.234h1.735c.274.053.335.176.373.452l.001 1.929c-.003.106.054.423.245.492.153.051.255-.072.346-.17.417-.441.714-.962.979-1.502.117-.238.219-.484.317-.731.073-.183.186-.272.392-.269l1.672.002c.049 0 .099 0 .148.008.281.049.359.17.271.445-.137.432-.403.791-.664 1.153-.279.385-.577.757-.853 1.145-.254.355-.234.534.081.841z"/>
</svg>
