<?xml version="1.0" encoding="utf-8"?>
<!-- Generator: Adobe Illustrator 21.1.0, SVG Export Plug-In . SVG Version: 6.00 Build 0)  -->
<svg version="1.1" id="Слой_1" xmlns="http://www.w3.org/2000/svg" xmlns:xlink="http://www.w3.org/1999/xlink" x="0px" y="0px"
	 viewBox="0 0 1280 1091" style="enable-background:new 0 0 1280 1091;" xml:space="preserve">
<style type="text/css">
	.st0{fill:#009473;}
	.st1{fill:#FFFFFF;}
</style>
<g>
	<path class="st0" d="M96,570c0-16.3,0-32.7,0-49c0.3-1.8,0.8-3.6,0.9-5.4c1.4-29.3,5.3-58.3,11.7-87
		c22.3-100.4,69.2-187.7,140.4-261.9c47.6-49.6,102.8-88.6,165.2-117.3C472.2,22.9,533,6.9,596.7,1.9c6.8-0.5,13.5-1.2,20.3-1.9
		c16.3,0,32.7,0,49,0c1.6,0.3,3.2,0.8,4.8,0.8c29.7,1.4,59,5.4,88,11.9C859.1,35,946.2,81.9,1020.2,152.9
		c49.6,47.6,88.6,102.8,117.3,165.2c26.6,58,42.6,118.9,47.6,182.6c0.5,6.8,1.2,13.5,1.9,20.3c0,16.3,0,32.7,0,49
		c-0.3,1.8-0.8,3.6-0.9,5.4c-1.5,29.5-5.4,58.7-11.8,87.5c-22.4,100.4-69.4,187.7-140.6,261.8c-47.5,49.4-102.6,88.3-164.9,116.9
		c-58,26.6-118.9,42.6-182.6,47.6c-6.8,0.5-13.5,1.2-20.3,1.9c-16.3,0-32.7,0-49,0c-1.6-0.3-3.2-0.8-4.8-0.8
		c-29.7-1.4-59-5.4-88-11.9c-100.2-22.3-187.4-69.2-261.4-140.2c-49.6-47.6-88.6-102.8-117.3-165.2c-26.6-58-42.6-118.9-47.6-182.6
		C97.3,583.5,96.6,576.8,96,570z M175,544.8c1,258.5,207.8,466.9,466.9,466.9c257.9,0.1,466.5-207,466.8-466.3
		c0.3-257.7-206.5-466.9-466.5-467.2C384.2,78,176.3,285.3,175,544.8z"/>
	<path class="st1" d="M617,0c-6.8,0.6-13.5,1.3-20.3,1.9c-63.7,5-124.5,21-182.6,47.6c-62.4,28.6-117.6,67.7-165.2,117.3
		c-71.2,74.2-118.1,161.5-140.4,261.9c-6.4,28.7-10.3,57.7-11.7,87c-0.1,1.8-0.6,3.6-0.9,5.4c0-173.6,0-347.2,0-521
		C269.7,0,443.3,0,617,0z"/>
	<path class="st1" d="M1187,521c-0.6-6.8-1.3-13.5-1.9-20.3c-5-63.7-21-124.5-47.6-182.6c-28.6-62.4-67.7-117.6-117.3-165.2
		c-74-71-161.2-117.9-261.4-140.3c-29-6.4-58.3-10.4-88-11.9c-1.6-0.1-3.2-0.5-4.8-0.8c173.7,0,347.3,0,521,0
		C1187,173.7,1187,347.3,1187,521z"/>
	<path class="st1" d="M96,570c0.6,6.8,1.3,13.5,1.9,20.3c5,63.7,21,124.5,47.6,182.6c28.6,62.4,67.7,117.6,117.3,165.2
		c74,71,161.2,117.9,261.4,140.2c29,6.4,58.3,10.4,88,11.9c1.6,0.1,3.2,0.5,4.8,0.8c-173.6,0-347.2,0-521,0
		C96,917.3,96,743.7,96,570z"/>
	<path class="st1" d="M666,1091c6.8-0.6,13.5-1.3,20.3-1.9c63.7-5,124.6-21,182.6-47.6c62.3-28.6,117.4-67.5,164.9-116.9
		c71.2-74.1,118.3-161.4,140.6-261.8c6.4-28.8,10.4-58,11.8-87.5c0.1-1.8,0.6-3.6,0.9-5.4c0,173.7,0,347.3,0,521
		C1013.3,1091,839.7,1091,666,1091z"/>
	<path class="st1" d="M175,544.8C176.3,285.3,384.2,78,642.3,78.3c259.9,0.3,466.8,209.5,466.5,467.2
		c-0.3,259.4-208.9,466.4-466.8,466.3C382.8,1011.7,176,803.3,175,544.8z M467.2,538.2c10,0,19.4,0,29.3,0c0,2.5,0,4.7,0,6.8
		c0,54.2,0,108.3,0,162.5c0,10,0.1,20,0,30c-0.2,16.7-8,25.5-24.2,28c-0.6,0.1-1.3,0.3-2,0.5c0,14.7,0,29.3,0,43.9
		c125.4,0,250.6,0,375.7,0c0-24.2,0-47.9,0-71.8c-14.9,0-29.4,0-43.9,0c-0.2,0.9-0.5,1.7-0.7,2.5c-3.3,18.7-10.5,24.9-29.3,24.9
		c-74.7,0-149.3,0-224,0c-2.1,0-4.2,0-6.4,0c0-76.3,0-151.7,0-227.7c69.7,0,139,0,208.5,0c0-6.9,0-13.1,0-20c-69.6,0-139,0-208.4,0
		c0-10.3,0-20.1,0-30.5c69.9,0,139.4,0,208.8,0c0-7,0-13.2,0-19.9c-69.8,0-139.2,0-209.3,0c0-63.1,0-125.7,0-188.5
		c-27.4,0-54.1,0-81.1,0c0,14.8,0,29.4,0,44.8c4.5,0,8.8-0.3,13.1,0.1c11.5,0.9,18.5,6.5,21.5,17.6c1.1,3.8,1.6,7.9,1.6,11.8
		c0.1,36.2,0.1,72.3,0.1,108.5c0,1.8,0,3.6,0,6.1c-10,0-19.4,0-28.6,0c0,7,0,13.2,0,20c9.7,0,18.9,0,28.4,0c0,10.3,0,20.1,0,30.4
		c-9.8,0-19.4,0-29,0C467.2,524.9,467.2,531.2,467.2,538.2z"/>
	<path d="M467.2,538.2c0-7,0-13.3,0-20.1c9.6,0,19.2,0,29,0c0-10.3,0-20.1,0-30.4c-9.5,0-18.7,0-28.4,0c0-6.8-0.1-15-0.1-22
		c9.2,0,18.7,0,28.7,0c0-2.5,0-2.3,0-4.1c0-36.2,0-72.3-0.1-108.5c0-3.9-0.5-8-1.6-11.8c-3.1-11-10.1-16.7-21.5-17.6
		c-4.3-0.3-8.6-0.1-13.1-0.1c0-15.4,0-30,0-44.8c27,0,53.7,0,81.1,0c0,62.9,0,123.4,0,186.5c70.1,0,139.5,0,209.3,0c0,6.8,0,15,0,22
		c-69.4,0-138.9,0-208.8,0c0,10.4,0,18.1,0,28.4c69.4,0,138.8,0.1,208.4,0.1c0,6.9,0,15.2,0,22c-69.5,0-138.8,0-208.5,0
		c0,76,0,151.4,0,227.7c2.2,0,4.3,0,6.4,0c74.7,0,149.3,0,224,0c18.8,0,26-6.2,29.3-24.9c0.1-0.8,0.4-1.6,0.7-2.5
		c14.6,0,29,0,43.9,0c0,23.9,0,47.6,0,71.8c-125.1,0-250.3,0-375.7,0c0-14.7,0-29.3,0-43.9c0.7-0.2,1.3-0.4,2-0.5
		c16.3-2.5,24-11.3,24.2-28c0.1-10,0-20,0-30c0-54.2,0-108.3,0-162.5c0-2.1,0-4.3,0-6.8C486.7,538.2,477.2,538.2,467.2,538.2z"/>
</g>
<g>
	<path d="M779.5,412.8l-1.8-41c-13.7-9.1-28-15.8-43-20.3c-15-4.5-30.6-6.7-46.9-6.7c-41.5,0-74.7,12.6-99.7,37.8
		c-25,25.2-37.5,58.9-37.5,101.2c0,29.7,6.3,56.1,19,79.3c12.7,23.2,30.7,41.6,54.1,55.1c23.4,13.5,48,20.3,74,20.3
		c20.6,0,41-2.4,61.1-7.1c15.1-3.5,30.2-10.9,45.4-22.1l4.8,4.6c-3.2,7.1-6.2,14.2-9,21.4c-18,8.9-36.1,15.6-54.3,20.2
		c-18.2,4.5-36.5,6.8-55,6.8c-37.8,0-71.1-7.3-99.7-21.9c-28.7-14.6-50.7-34.8-66.1-60.5c-15.4-25.7-23.1-54.8-23.1-87.3
		s7.8-61.4,23.3-87c15.5-25.6,37.5-45.4,65.8-59.5S654.2,325,695.6,325c21.7,0,47,3.5,76.1,10.6c14.4,3.4,26.2,5.9,35.3,7.6
		c-6.9,16.4-10.9,39.7-12,69.6H779.5z"/>
</g>
</svg>
