<svg xmlns="http://www.w3.org/2000/svg" width="22" height="22">
    <path fill="#FFF" fill-rule="evenodd" d="M8.549 17.121a8.388 8.388 0 0 0 5.46-1.994l6.635 6.645a.76.76 0 0 0 .55.227.763.763 0 0 0 .55-.227.782.782 0 0 0 0-1.102l-6.636-6.644a8.552 8.552 0 0 0 1.991-5.466c0-4.727-3.83-8.561-8.55-8.561C3.848-.001 0 3.853 0 8.56c0 4.726 3.848 8.561 8.549 8.561zm0-15.566c3.868 0 6.996 3.151 6.996 7.005a6.995 6.995 0 0 1-6.996 7.004c-3.867 0-6.995-3.151-6.995-7.004 0-3.854 3.147-7.005 6.995-7.005z"/>
</svg>
