<svg xmlns="http://www.w3.org/2000/svg" width="25" height="25">
    <path fill="#FFF" fill-rule="evenodd" d="M21.336 21.336a12.499 12.499 0 0 1-14.747 2.177c-1.665 1.201-3.293 1.459-4.397 1.459-.413 0-.751-.037-.989-.074a1.172 1.172 0 0 1-.338-2.209c.956-.47 1.602-1.411 2.003-2.22-4.096-4.931-3.78-12.241.788-16.807a12.407 12.407 0 0 1 8.837-3.663c3.341 0 6.475 1.3 8.838 3.663a12.412 12.412 0 0 1 3.668 8.837c0 3.34-1.3 6.474-3.663 8.837zM20.317 4.671C16.003.353 8.978.353 4.66 4.671.527 8.804.326 15.464 4.195 19.835c.1.116.158.259.174.402a.726.726 0 0 1-.037.46c-.396.904-1.073 2.067-2.146 2.848h.006c.93 0 2.336-.232 3.768-1.342a.25.25 0 0 1 .058-.043.713.713 0 0 1 .867-.111 11.073 11.073 0 0 0 13.437-1.722c4.318-4.318 4.318-11.338-.005-15.656zm-3.299 8.706a.878.878 0 0 1 0-1.756.878.878 0 0 1 0 1.756zm-4.525 0a.878.878 0 1 1 .003-1.757.878.878 0 0 1-.003 1.757zm-4.524 0a.879.879 0 1 1 .001-1.757.879.879 0 0 1-.001 1.757z"/>
</svg>
