<svg xmlns="http://www.w3.org/2000/svg" width="28" height="20">
    <path fill="#FFF" fill-rule="evenodd" d="M28 1.906v-.11a1.84 1.84 0 0 0-.514-1.233l-.037-.038s-.038 0-.038-.038C27.336.411 27.265.376 27.19.3c-.038 0-.038-.038-.075-.038-.075-.038-.183-.076-.258-.111-.038 0-.038-.038-.075-.038a1.039 1.039 0 0 0-.33-.076h-.075c-.109 0-.259-.038-.405-.038H1.986c-.146 0-.293 0-.442.038-.038 0-.075 0-.109.038-.109.038-.221.038-.293.076-.037 0-.037.038-.074.038C.993.227.884.265.809.3L.772.338C.697.376.625.448.55.487L.442.598a1.787 1.787 0 0 0-.443 1.01V18.393c.075.523.331.973.698 1.232.33.225.735.374 1.211.374h24.176c.109 0 .259 0 .368-.038h.075c.108-.038.221-.038.292-.076h.038c.809-.298 1.139-1.011 1.139-1.683V2.017v-.076c.004.003.004.003.004-.035zm-2.351-.523L14.076 12.856 11.43 10.24 2.354 1.38h23.295v.003zM1.364 17.867V2.318l8.559 8.372-8.559 7.177zm12.345.782H2.575l8.341-6.952 2.68 2.654c.109.111.222.149.33.187h.225c.109-.038.259-.076.33-.187l2.534-2.505 8.375 6.803H13.709zm12.93-.747l-8.596-7.063 8.596-8.521v15.584z"/>
</svg>
