<svg xmlns="http://www.w3.org/2000/svg" width="21" height="25">
    <path fill="#FFF" fill-rule="evenodd" d="M20.753 22.198a.703.703 0 0 1-.267.327c-.153.097-3.829 2.474-9.979 2.474-6.15 0-9.826-2.371-9.979-2.474a.662.662 0 0 1-.266-.327c-.271-.694-.266-2.076-.261-2.345v-.015c.005-.042.005-.083.005-.13.031-1.02.097-3.417 2.316-4.188.015-.005.031-.011.051-.016 2.316-.595 4.223-1.941 4.244-1.957a.684.684 0 0 1 .961.171.703.703 0 0 1-.169.973c-.087.058-2.121 1.496-4.668 2.16-1.191.429-1.324 1.718-1.36 2.898 0 .047-.005.089-.005.13-.01.466.026 1.186.108 1.6.833.476 4.1 2.128 9.018 2.128 4.939 0 8.185-1.647 9.013-2.123.082-.414.113-1.134.108-1.6-.006-.042-.006-.083-.006-.129-.035-1.181-.168-2.47-1.359-2.9-2.546-.662-4.581-2.096-4.668-2.158a.705.705 0 0 1-.169-.974.684.684 0 0 1 .961-.17c.021.015 1.938 1.362 4.244 1.956.015.006.035.011.051.016 2.219.766 2.285 3.163 2.316 4.188 0 .047.005.088.005.129v.016c.005.269.01 1.652-.245 2.34zm-10.18-8.729h-.163c-1.498-.025-2.71-.558-3.599-1.579C4.842 9.643 5.17 5.792 5.205 5.424c.128-2.779 1.437-4.1 2.511-4.715 1.068-.617 2.183-.71 2.751-.71H10.553c1.033.021 1.958.269 2.751.73 1.063.616 2.352 1.936 2.479 4.695.036.368.363 4.219-1.605 6.466-.895 1.021-2.106 1.554-3.605 1.579zm3.84-7.915c-.005-.011-.005-.026-.005-.041-.158-3.511-2.505-4.08-3.885-4.111h-.062c-1.114 0-3.716.398-3.885 4.111 0 .01-.005.025-.005.041-.005.031-.353 3.567 1.267 5.41.639.735 1.503 1.098 2.629 1.108H10.518c1.129-.01 1.988-.373 2.632-1.108 1.626-1.853 1.268-5.374 1.263-5.41z"/>
</svg>
